<svg xmlns="http://www.w3.org/2000/svg" width="256" height="256"><path fill="#1976D2" fill-opacity=".055" fill-rule="evenodd" d="M0 128.004v128.004l128.25-.254 128.25-.254.254-127.75L257.008 0H0zm.485.496c0 70.4.119 99.053.265 63.672.146-35.38.146-92.98 0-128C.604 29.153.485 58.1.485 128.5"/><path fill="#1976D2" fill-opacity=".195" fill-rule="evenodd" d="M0 128.004v128.004l128.25-.254 128.25-.254.254-127.75L257.008 0H0zm.475.496c0 78.265.199 105.658.513 70.5.323-36.328.811-55.163 1.323-51.152.446 3.491 1.934 10.241 3.307 15 13.674 47.398 53.419 82.824 101.71 90.656 62.555 10.146 123.02-27.067 142.096-87.452 7.425-23.506 7.425-52.598 0-76.104-12.541-39.7-43.672-70.831-83.372-83.372-23.506-7.425-52.598-7.425-76.104 0-40.794 12.887-72.446 45.383-84.33 86.576-1.373 4.759-2.861 11.509-3.307 15-.513 4.017-.999-14.583-1.323-50.652-.311-34.564-.513-6.617-.513 71M126.251 20.349c-.602 1.321-23.405 41.642-50.673 89.604C48.31 157.914 26 197.57 26 198.078c0 .557 40.634.922 102.607.922 81.682 0 102.506-.255 102.113-1.25-1.278-3.236-101.858-179.284-102.566-179.526-.445-.152-1.302.805-1.903 2.125m-43.216 90.589c-24.886 43.55-45.048 79.382-44.803 79.627.245.245 41.017.331 90.605.19l90.159-.255-44.579-78c-24.518-42.9-44.929-78.617-45.356-79.372-.517-.913-15.917 25.123-46.026 77.81m4.278 4.34L48.126 185.5l78.597.256c43.229.141 78.782.072 79.007-.152.534-.534-77.796-140.613-78.608-140.576-.342.015-18.256 31.628-39.809 70.25m39.172-63.254c-.393.636-17.079 30.253-37.08 65.816L53.039 182.5l73.641.256c40.502.142 73.841.056 74.087-.19.33-.33-71.763-129.547-73.301-131.383-.146-.174-.587.204-.981.841m-17.83 44.377c-11.89 4.417-13.96 17.342-3.621 22.616 2.302 1.175 6.349 2.214 8.992 2.309l4.807.174-2.468 4.5c-4.835 8.815-5.176 9.024-12.654 7.743-4.963-.85-7.205-.839-9.143.044-3.145 1.433-3.516 5.635-.634 7.178 2.812 1.505 9.716 1.267 13.034-.448 2.552-1.32 3.285-1.309 6.65.097 2.679 1.119 6.055 1.476 11.582 1.225 4.29-.194 7.8-.103 7.8.203s-1.463 1.086-3.25 1.734c-4.688 1.7-10.779 7.048-12.374 10.867-3.066 7.338-.28 14.407 6.477 16.431 3.146.943 4.065 1.766 4.523 4.055.326 1.63 1.222 2.871 2.074 2.871 1.096 0 1.359-.74.978-2.75-.475-2.501-.051-2.976 4.683-5.25 9.736-4.675 14.696-14.7 9.829-19.862-1.839-1.951-2.917-2.27-6.182-1.832-2.175.291-5.095 1.579-6.488 2.862-3.251 2.992-6.22 9.431-6.248 13.551-.029 4.313-2.726 3.375-3.594-1.25-1.731-9.229 8.214-20.749 16.426-19.027 3.039.637 5.728-.692 4.715-2.33-.378-.612-2.123-1.133-3.878-1.158-2.931-.042-2.693-.276 2.916-2.873 3.359-1.555 7.994-4.533 10.301-6.617 3.447-3.114 4.141-4.336 3.893-6.859-.43-4.384-3.968-5.435-10.789-3.204-7.651 2.503-12.637 6.194-15.021 11.118-1.146 2.366-2.774 4.567-3.619 4.892-1.947.747-9.152.592-12.186-.262l-2.315-.652 3.139-2.998c1.726-1.65 4.704-5.573 6.618-8.719 2.792-4.589 4.658-6.348 9.428-8.891C140.087 112.142 147 105.08 147 101.645c0-5.314-5.432-5.823-11.649-1.093-2.804 2.133-3.29 2.226-4.433.849-4.042-4.87-15.615-7.469-22.263-5m1.845 2.28c-1.1.287-3.463 1.625-5.25 2.972-3.418 2.576-4.294 6.528-2.279 10.292 1.378 2.576 8.245 5.064 13.799 5.001 4.619-.053 4.83-.195 9.008-6.051 2.352-3.298 4.009-6.43 3.682-6.96-1.952-3.158-14.101-6.524-18.96-5.254m27.381 4.134c-2.856 2.552-3.031 3.036-1.88 5.186l1.269 2.372 3.365-3.672c5.71-6.23 3.446-9.425-2.754-3.886m-6.639 8.169c-1.771 2.835-1.569 3.122 1.284 1.822 1.389-.633 2.374-1.607 2.187-2.166-.612-1.837-2.207-1.679-3.471.344m17.991 13.139c-3.831 1.106-12.233 8.792-12.233 11.191 0 1.493.51 1.456 5.168-.38 8.422-3.32 13.982-8.264 12.319-10.955-.696-1.127-.867-1.122-5.254.144M95.244 137.25c.474 1.444 6.163 2.226 8.601 1.183 1.364-.584 1.215-.842-.845-1.471-4.134-1.261-8.215-1.11-7.756.288m42.363 15.845c-2.808 2.209-5.877 7.55-6.984 12.155-.58 2.414-.371 2.75 1.717 2.75 3.316 0 11.346-7.295 12.173-11.06.691-3.144-.721-5.94-3.001-5.94-.683 0-2.441.943-3.905 2.095"/><path fill="#1976D2" fill-opacity=".505" fill-rule="evenodd" d="M.13 60.75c.084 39.237.43 58.094.979 53.25 3.289-29.031 15.999-55.257 36.839-76.014C59.052 16.966 84.972 4.398 114 1.109 118.844.56 99.987.214 60.75.13L0 0zM142 1.109c29.028 3.289 54.948 15.857 76.052 36.877 20.84 20.757 33.55 46.983 36.839 76.014.549 4.844.895-14.013.979-53.25L256 0l-60.75.13c-39.237.084-58.094.43-53.25.979M76.851 108.288 26.202 197.5l101.561.255c55.858.14 101.753.062 101.988-.173.566-.565-100.37-177.966-101.43-178.271-.452-.129-23.613 39.91-51.47 88.977m5.471 2.998L37.144 190.5l90.59.255c49.824.141 90.763.081 90.976-.131.547-.548-89.688-158.632-90.523-158.588-.378.019-21.017 35.682-45.865 79.25m37.989-54.172c-30.968 54.873-71.478 128.052-71.098 128.432.256.257 35.617.351 78.58.21l78.115-.256-38.032-68c-20.918-37.4-38.604-69.074-39.304-70.386-1.217-2.286-1.565-1.865-8.261 10M89.75 116.442C69.537 152.41 53 182.325 53 182.919c0 .765 21.799 1.081 74.5 1.081 40.975 0 74.5-.259 74.5-.576 0-1.122-74.247-132.424-74.869-132.401-.347.012-17.168 29.451-37.381 65.419m16.15-18.451c-4.662 2.464-6.9 5.98-6.9 10.839 0 7.236 6.315 12.17 15.575 12.17 3.709 0 4.524.3 4.064 1.497-1.088 2.837-7.616 12.503-8.443 12.503-.456 0-3.326-.462-6.379-1.026-8.79-1.625-14.3 1.624-10.283 6.063 2.156 2.383 7.978 2.612 13.007.51 3.058-1.277 3.987-1.27 7.718.064 3.166 1.132 6.206 1.348 11.991.849 4.925-.425 7.75-.305 7.75.328 0 .547-1.194 1.295-2.654 1.661-8.33 2.091-16.219 12.086-14.936 18.924.726 3.868 4.144 7.413 8.191 8.496 2.065.552 3.117 1.652 3.775 3.948 1.17 4.077 2.875 4.139 2.45.09-.29-2.767.057-3.225 3.29-4.336 5.662-1.947 9.529-5.207 11.841-9.983 6.26-12.931-9.364-17.511-15.918-4.665-1.092 2.141-2.28 5.735-2.64 7.985-.716 4.474-1.764 5.147-3.364 2.158-2.657-4.965-.39-12.55 5.399-18.064 3.195-3.042 4.348-3.507 8.869-3.573 3.8-.055 5.197-.459 5.197-1.502 0-.892-1.272-1.548-3.391-1.751-3.257-.311-3.071-.48 4.65-4.237 10.819-5.265 15.628-11.152 12.041-14.739-2.013-2.013-9.053-1.377-14.434 1.305-5.645 2.813-8.727 5.728-11.19 10.587-2.019 3.983-5.216 5.016-11.75 3.795-2.619-.489-4.911-1.039-5.094-1.222-.183-.182 1.414-2.224 3.549-4.536 2.134-2.312 4.904-6.133 6.155-8.49 1.659-3.129 3.66-5.013 7.402-6.972 9.987-5.229 16.435-12.34 15.075-16.625-.324-1.021-1.272-2.119-2.107-2.44-1.623-.623-6.692 1.256-9.799 3.632-1.703 1.303-2.448 1.114-7.441-1.893-4.707-2.834-6.467-3.334-11.607-3.297-3.956.029-7.309.705-9.659 1.947m2.171 1.761c-5.086 2.593-7.532 6.366-6.376 9.834 1.538 4.612 5.508 6.804 13.087 7.226l6.718.374 4.404-6.262 4.404-6.263-2.656-2.284c-5.091-4.379-13.841-5.552-19.581-2.625m30.155 2.378c-2.997 1.919-3.218 2.405-2.609 5.733.65 3.554.621 3.597-1.295 1.896-1.893-1.681-2.018-1.621-3.632 1.766l-1.673 3.507 3.965-2.023C138.1 110.398 144 104.485 144 101.967c0-2.515-1.666-2.467-5.774.163m8.674 22.861c-6.881 3.637-13.26 13.183-7.65 11.448 7.594-2.348 15.75-8.368 15.75-11.626 0-2.387-3.388-2.312-8.1.178M.13 195.25 0 256l60.75-.13c39.237-.084 58.094-.43 53.25-.979-29.028-3.289-54.948-15.857-76.052-36.877C17.108 197.257 4.398 171.031 1.109 142 .56 137.156.214 156.013.13 195.25m254.545-52.934c-3.467 41.011-31.63 81.037-70.464 100.143-13.46 6.623-27.542 10.77-42.211 12.432-4.844.549 14.013.895 53.25.979L256 256v-60.5c0-33.275-.159-60.5-.353-60.5-.195 0-.632 3.292-.972 7.316m-160.176-5.314c-.341.551.562 1.451 2.006 2 3.307 1.257 3.746 1.248 7.18-.142l2.815-1.141-2.5-.76c-3.7-1.124-8.794-1.102-9.501.043m41.479 17.675c-3.532 4.023-5.978 9.08-5.978 12.358 0 1.708.42 1.976 2.25 1.435 7.529-2.224 13.682-9.62 12.366-14.864-.979-3.899-4.676-3.44-8.638 1.071"/><path fill="#1976D2" fill-opacity=".5" fill-rule="evenodd" d="M.15 58.25c.082 32.038.319 56.9.526 55.25C8.122 54.172 54.172 8.122 113.5.676 115.15.469 90.288.232 58.25.15L0 0zM142.5.676C201.828 8.122 247.878 54.172 255.324 113.5c.207 1.65.444-23.212.526-55.25L256 0l-58.25.15c-32.038.082-56.9.319-55.25.526m-37.215 58.436C38.519 176.454 26.84 197.173 27.24 197.573c.24.24 45.948.322 101.574.182l101.137-.255-50.051-88c-27.528-48.4-50.407-88.625-50.843-89.388-.536-.941-8.188 11.612-23.772 39m18.969-21.507c-19.819 34.126-87.21 152.772-86.933 153.05.196.195 41.315.241 91.376.1l91.02-.255-44.903-78.5c-24.697-43.175-45.275-79.128-45.73-79.895-.597-1.009-1.935.514-4.83 5.5m2.107 9.578c-.462.725-18.009 32.029-38.995 69.567L49.211 185h155.961l-3.476-6.25c-18.348-32.987-73.924-132.311-74.174-132.561-.177-.177-.699.27-1.161.994M89.5 116.053c-20.35 36.271-37.15 66.398-37.333 66.948-.22.66 25.188.999 74.823.999 63.996 0 75.109-.208 74.833-1.404-.476-2.068-74.109-132.605-74.765-132.544-.307.029-17.208 29.729-37.558 66.001m17.95-18.646c-7.28 3.171-10.699 11.936-6.817 17.479 2.213 3.16 8.946 6.065 14.117 6.092 2.338.012 4.25.265 4.25.562 0 1.289-4.121 8.451-6.469 11.241-2.362 2.807-2.843 2.972-6.073 2.08-5.316-1.468-12.54-.711-13.856 1.452-.896 1.473-.66 2.175 1.259 3.75 2.858 2.346 6.777 2.466 12.019.369 3.555-1.423 4.408-1.424 9.176-.008 3.754 1.115 7.212 1.379 12.1.925 7.529-.7 9.027.46 3.278 2.539-11.632 4.206-17.346 17.354-10.511 24.189 1.67 1.67 3.994 2.923 5.421 2.923 1.959 0 2.638.643 3.153 2.989.975 4.435 2.939 5.151 2.118.771-.644-3.429-.56-3.548 2.951-4.206 4.923-.924 12.183-7.7 13.018-12.151 1.444-7.696-2.522-11.709-8.929-9.032-4.947 2.067-8.427 6.903-9.82 13.647-1.163 5.634-1.318 5.854-3.031 4.305-2.944-2.664-2.409-9.977 1.139-15.572 3.528-5.564 7.364-7.751 13.591-7.751 3.264 0 4.508-.369 4.211-1.25-.232-.687-1.602-1.271-3.046-1.296-4.003-.07-4.212-1.13-.467-2.366 5.622-1.855 14.718-8.091 16.319-11.187 1.173-2.267 1.258-3.39.381-5.028-.969-1.81-1.807-2.043-5.922-1.648-8.441.811-17.064 6.379-19.01 12.275-1.693 5.13-6.204 6.485-14.578 4.376l-4.464-1.124 4.321-4.626c2.376-2.544 5.408-6.564 6.737-8.932 1.812-3.23 3.921-5.105 8.437-7.5 3.311-1.757 7.741-4.908 9.843-7.003 3.093-3.082 3.763-4.418 3.513-7-.258-2.664-.773-3.244-3.12-3.513-1.848-.212-3.966.559-6.183 2.25-3.959 3.019-4.796 3.135-6.634.914-3.856-4.661-15.902-6.775-22.422-3.935m.05 2.129c-3.955 2.009-6.5 5.14-6.5 7.998 0 3.904 4.458 8.137 9.962 9.457 6.591 1.581 10.503.597 13.185-3.317 1.196-1.746 3.296-4.395 4.666-5.888 3.007-3.275 2.264-4.589-4.353-7.7-5.256-2.47-12.703-2.712-16.96-.55m29.753 3.046c-2.761 2.175-3.086 2.861-2.169 4.574.593 1.108.755 2.314.36 2.68-.395.365-.919.102-1.164-.586-.246-.687-.762-1.25-1.148-1.25-1.049 0-4.418 6.047-3.745 6.721 1.04 1.039 11.628-6.697 13.596-9.934 3.238-5.323-.13-6.619-5.73-2.205m7.234 23.799c-4.761 3.228-9.346 9.094-8.089 10.35.929.929 8.392-1.846 13.251-4.928 4.104-2.602 6.708-6.298 5.675-8.053-1.038-1.762-6.211-.506-10.837 2.631m-49.984 10.615c-1.021 1.652 4.058 3.309 7.92 2.584 1.968-.369 3.577-1.048 3.577-1.509 0-1.917-10.377-2.887-11.497-1.075M.15 197.75 0 256l58.25-.15c32.038-.082 56.9-.319 55.25-.526C54.172 247.878 8.122 201.828.676 142.5c-.207-1.65-.444 23.212-.526 55.25M255 143.042c0 1.673-.695 6.406-1.544 10.518-11.136 53.91-55.759 94.837-110.956 101.764-1.65.207 23.212.444 55.25.526L256 256v-58c0-31.9-.225-58-.5-58s-.5 1.369-.5 3.042m-118.392 10.259c-3.248 3.248-6.608 9.994-6.608 13.268 0 2.388.27 2.581 2.75 1.962 3.355-.838 8.743-4.827 10.839-8.027.854-1.303 1.405-3.852 1.23-5.683-.267-2.778-.766-3.372-3.05-3.636-1.851-.213-3.514.469-5.161 2.116"/></svg>